# xmcd CD database file
#
# Track frame offsets:
#	150
#	19949
#	43964
#	67401
#	98319
#	126939
#	148450
#	175303
#	200452
#	233873
#	254511
#	294680
#
# Disc length: 4440 seconds
#
# Revision: 0
# Processed by: cddbd v1.5.2PL0 Copyright (c) Steve Scherf et al.
# Submitted via: CDex 1.51
#
DISCID=c211560c
DTITLE=Dianne Reeves - A LITTLE MOONLIGHT 
DYEAR=2002
DGENRE=Jazz
TTITLE0=LOADS OF LOVE
TTITLE1=I CONCENTRATE ON YOU
TTITLE2=REFLECTIONS
TTITLE3=SKYLARK
TTITLE4=WHAT A LITTLE MOONLIGHT CAN DO
TTITLE5=DARN THAT DREAM
TTITLE6=I'M ALL SMILES
TTITLE7=LULLABY OF BROADWAY
TTITLE8=YOU GO TO MY HEAD
TTITLE9=WE'LL BE TOGETHER AGAIN
TTITLE10=MAKE SURE YOU'RE SURE
TTITLE11=12
EXTD=YEAR: 2002
EXTT0=
EXTT1=
EXTT2=
EXTT3=
EXTT4=
EXTT5=
EXTT6=
EXTT7=
EXTT8=
EXTT9=
EXTT10=
EXTT11=
PLAYORDER=
